<svg xmlns="http://www.w3.org/2000/svg" viewBox="0 0 1792 1792"><title>user2</title><path d="M1792,896q0,182-71,347.5t-190.5,286Q1411,1650,1245,1721t-349,71q-182,0-348-71T262,1530Q142,1410,71,1244T0,896Q0,714,71,548T262,262Q382,142,548,71T896,0q182,0,348,71t286,191q120,120,191,286T1792,896Z" fill="#00b97a"/><path d="M1523,1339q-22-155-87.5-257.5T1251,963q-67,74-159.5,115.5T896,1120q-103,0-195.5-41.5T541,963q-119,16-184.5,118.5T269,1339q106,150,271,237.5T896,1664q191,0,356-87.5T1523,1339ZM1280,640q0-159-112.5-271.5T896,256q-159,0-271.5,112.5T512,640q0,159,112.5,271.5T896,1024q159,0,271.5-112.5T1280,640Z" fill="#fff" stroke="#00b97a" stroke-miterlimit="10" stroke-width="10"/></svg>